<svg width="631" height="300" viewBox="0 0 631 300" fill="none" xmlns="http://www.w3.org/2000/svg">
<circle cx="121.154" cy="157.5" r="121.154" fill="#C4C4C4"/>
<path d="M191.03 160.562C213.96 160.562 234.262 147.003 234.262 125.209C234.262 108.314 222.407 97.3819 204.518 89.8571C192.166 84.675 184.073 82.9712 184.073 77.7181C184.073 73.8137 188.546 70.6192 194.793 70.6192C200.259 70.6192 209.061 73.2458 212.469 79.2798L230.003 62.3845C225.531 51.0974 211.901 42.8627 194.438 42.8627C172.715 42.8627 153.903 56.9894 153.903 76.7952C153.903 94.0454 166.326 103.558 180.808 109.805C192.024 114.774 203.737 119.956 203.737 125.848C203.737 130.534 197.419 132.876 190.959 132.876C181.376 132.876 172.502 128.617 167.746 121.589L149.36 139.62C155.11 152.256 172.218 160.562 191.03 160.562ZM294.674 162.194C320.868 162.194 342.165 143.666 342.165 117.401V44.5664H311.569V117.33C311.569 126.7 303.192 133.16 294.603 133.16C285.942 133.16 277.778 126.842 277.778 117.33V44.5664H247.182V117.401C247.182 143.666 268.479 162.194 294.674 162.194ZM429.481 44.4244V100.221L370.844 43.4306H361.048V159.071H391.431V103.132L450.281 160.136H459.935V44.4244H429.481Z" fill="black"/>
<path d="M184.978 249.777V297.269H161.401V184.645H461.629V204.32H184.978V229.932H234.505V249.777H184.978Z" fill="black"/>
<path d="M255.397 297.269V225.74H273.134V234.318C274.684 231.895 276.284 230.005 277.931 228.648C279.676 227.291 281.421 226.273 283.165 225.595C285.007 224.819 286.848 224.335 288.69 224.141C290.531 223.947 292.421 223.85 294.36 223.85H296.831V243.186C295.087 242.895 293.342 242.75 291.598 242.75C280.064 242.75 274.297 248.517 274.297 260.051V297.269H255.397Z" fill="black"/>
<path d="M352.08 254.526C351.983 251.909 351.498 249.631 350.626 247.693C349.851 245.658 348.784 244.01 347.427 242.75C346.071 241.393 344.52 240.424 342.775 239.842C341.031 239.164 339.237 238.825 337.396 238.825C333.616 238.825 330.321 240.23 327.51 243.041C324.796 245.755 323.245 249.583 322.857 254.526H352.08ZM322.276 266.448C322.567 271.875 324.117 276.188 326.928 279.387C329.836 282.585 333.616 284.185 338.268 284.185C341.37 284.185 344.084 283.506 346.41 282.149C348.833 280.695 350.384 278.708 351.062 276.188H370.544C368.314 283.555 364.437 289.225 358.913 293.198C353.388 297.172 346.797 299.159 339.141 299.159C315.297 299.159 303.376 286.171 303.376 260.196C303.376 254.671 304.151 249.68 305.702 245.221C307.253 240.763 309.482 236.935 312.39 233.736C315.394 230.538 319.029 228.115 323.294 226.467C327.558 224.722 332.453 223.85 337.977 223.85C349.027 223.85 357.362 227.388 362.984 234.463C368.702 241.538 371.561 252.2 371.561 266.448H322.276Z" fill="black"/>
<path d="M432.467 254.526C432.37 251.909 431.886 249.631 431.013 247.693C430.238 245.658 429.172 244.01 427.815 242.75C426.458 241.393 424.907 240.424 423.163 239.842C421.418 239.164 419.625 238.825 417.783 238.825C414.003 238.825 410.708 240.23 407.897 243.041C405.183 245.755 403.633 249.583 403.245 254.526H432.467ZM402.663 266.448C402.954 271.875 404.505 276.188 407.316 279.387C410.223 282.585 414.003 284.185 418.656 284.185C421.757 284.185 424.471 283.506 426.797 282.149C429.22 280.695 430.771 278.708 431.45 276.188H450.931C448.702 283.555 444.825 289.225 439.3 293.198C433.776 297.172 427.185 299.159 419.528 299.159C395.685 299.159 383.763 286.171 383.763 260.196C383.763 254.671 384.539 249.68 386.09 245.221C387.64 240.763 389.87 236.935 392.777 233.736C395.782 230.538 399.417 228.115 403.681 226.467C407.946 224.722 412.84 223.85 418.365 223.85C429.414 223.85 437.75 227.388 443.371 234.463C449.09 241.538 451.949 252.2 451.949 266.448H402.663Z" fill="black"/>
<path d="M541.551 56H487L508.927 122H566.152L541.551 56Z" fill="black"/>
<path d="M606.399 56H551.848L573.775 122H631L606.399 56Z" fill="black"/>
<path d="M541.551 144H487L508.927 210H566.152L541.551 144Z" fill="black"/>
<path d="M606.399 144H551.848L573.775 210H631L606.399 144Z" fill="black"/>
<path d="M541.551 232H487L508.927 298H566.152L541.551 232Z" fill="black"/>
<path d="M606.399 232H551.848L573.775 298H631L606.399 232Z" fill="black"/>
</svg>
