<svg width="423" height="201" viewBox="0 0 423 201" fill="none" xmlns="http://www.w3.org/2000/svg">
<circle cx="81.0607" cy="105.379" r="81.0607" fill="#FFB703"/>
<path d="M127.813 107.045C143.155 107.045 156.739 97.9731 156.739 83.3917C156.739 72.0875 148.807 64.773 136.837 59.7384C128.573 56.2712 123.158 55.1312 123.158 51.6165C123.158 49.0042 126.151 46.8668 130.33 46.8668C133.988 46.8668 139.877 48.6242 142.157 52.6614L153.889 41.3572C150.896 33.8053 141.777 28.2957 130.093 28.2957C115.559 28.2957 102.972 37.7475 102.972 50.999C102.972 62.5407 111.284 68.9052 120.974 73.0849C128.478 76.4097 136.315 79.8769 136.315 83.8191C136.315 86.9539 132.088 88.5213 127.766 88.5213C121.354 88.5213 115.417 85.6715 112.234 80.9693L99.9327 93.0335C103.78 101.488 115.227 107.045 127.813 107.045ZM197.158 108.137C214.684 108.137 228.933 95.7408 228.933 78.167V29.4356H208.462V78.1195C208.462 84.3891 202.858 88.7113 197.111 88.7113C191.316 88.7113 185.854 84.4841 185.854 78.1195V29.4356H165.383V78.167C165.383 95.7408 179.632 108.137 197.158 108.137ZM287.354 29.3406V66.6729L248.122 28.6757H241.567V106.047H261.896V68.6202L301.27 106.76H307.73V29.3406H287.354Z" fill="#023047"/>
<path d="M123.764 167.119V198.895H107.989V123.541H308.864V136.705H123.764V153.841H156.901V167.119H123.764Z" fill="#023047"/>
<path d="M170.879 198.895V151.036H182.746V156.776C183.784 155.154 184.854 153.89 185.956 152.982C187.124 152.074 188.291 151.393 189.458 150.939C190.69 150.42 191.922 150.096 193.155 149.966C194.387 149.837 195.651 149.772 196.948 149.772H198.602V162.709C197.435 162.515 196.267 162.417 195.1 162.417C187.383 162.417 183.524 166.276 183.524 173.993V198.895H170.879Z" fill="#023047"/>
<path d="M235.567 170.296C235.502 168.546 235.178 167.022 234.594 165.725C234.075 164.363 233.362 163.26 232.454 162.417C231.546 161.509 230.509 160.861 229.342 160.472C228.174 160.018 226.975 159.791 225.742 159.791C223.213 159.791 221.008 160.731 219.128 162.612C217.312 164.428 216.275 166.989 216.015 170.296H235.567ZM215.626 178.273C215.821 181.904 216.858 184.79 218.739 186.93C220.684 189.07 223.213 190.14 226.326 190.14C228.401 190.14 230.217 189.686 231.773 188.778C233.395 187.806 234.432 186.476 234.886 184.79H247.921C246.429 189.719 243.835 193.512 240.139 196.171C236.442 198.83 232.033 200.159 226.91 200.159C210.957 200.159 202.981 191.47 202.981 174.09C202.981 170.394 203.499 167.054 204.537 164.071C205.575 161.088 207.066 158.526 209.011 156.386C211.022 154.246 213.454 152.625 216.307 151.523C219.16 150.356 222.435 149.772 226.132 149.772C233.524 149.772 239.101 152.139 242.862 156.873C246.689 161.607 248.602 168.74 248.602 178.273H215.626Z" fill="#023047"/>
<path d="M289.352 170.296C289.287 168.546 288.963 167.022 288.379 165.725C287.861 164.363 287.147 163.26 286.239 162.417C285.331 161.509 284.294 160.861 283.127 160.472C281.959 160.018 280.76 159.791 279.527 159.791C276.998 159.791 274.794 160.731 272.913 162.612C271.097 164.428 270.06 166.989 269.8 170.296H289.352ZM269.411 178.273C269.606 181.904 270.643 184.79 272.524 186.93C274.469 189.07 276.998 190.14 280.111 190.14C282.186 190.14 284.002 189.686 285.558 188.778C287.18 187.806 288.217 186.476 288.671 184.79H301.706C300.214 189.719 297.62 193.512 293.924 196.171C290.227 198.83 285.818 200.159 280.695 200.159C264.742 200.159 256.766 191.47 256.766 174.09C256.766 170.394 257.284 167.054 258.322 164.071C259.36 161.088 260.851 158.526 262.797 156.386C264.807 154.246 267.239 152.625 270.092 151.523C272.945 150.356 276.22 149.772 279.917 149.772C287.309 149.772 292.886 152.139 296.648 156.873C300.474 161.607 302.387 168.74 302.387 178.273H269.411Z" fill="#023047"/>
<path d="M362.337 37.468H325.838L340.509 81.6268H378.797L362.337 37.468Z" fill="#023047"/>
<path d="M405.725 37.468H369.226L383.897 81.6268H422.185L405.725 37.468Z" fill="#023047"/>
<path d="M362.337 96.3464H325.838L340.509 140.505H378.797L362.337 96.3464Z" fill="#023047"/>
<path d="M405.725 96.3464H369.226L383.897 140.505H422.185L405.725 96.3464Z" fill="#023047"/>
<path d="M362.337 155.225H325.838L340.509 199.384H378.797L362.337 155.225Z" fill="#023047"/>
<path d="M405.725 155.225H369.226L383.897 199.384H422.185L405.725 155.225Z" fill="#023047"/>
</svg>
