<svg width="462" height="160" viewBox="0 0 462 160" fill="none" xmlns="http://www.w3.org/2000/svg">
<circle cx="72.7107" cy="80.9558" r="72.7107" fill="white"/>
<path d="M188.638 73.0748C202.837 73.0748 215.41 64.6784 215.41 51.1827C215.41 40.7202 208.068 33.9503 196.99 29.2905C189.341 26.0814 184.33 25.0264 184.33 21.7734C184.33 19.3556 187.099 17.3774 190.968 17.3774C194.353 17.3774 199.804 19.0039 201.914 22.7405L212.772 12.278C210.003 5.28833 201.562 0.188965 190.748 0.188965C177.296 0.188965 165.647 8.93702 165.647 21.2019C165.647 31.8842 173.34 37.7748 182.308 41.6433C189.253 44.7205 196.507 47.9296 196.507 51.5783C196.507 54.4797 192.594 55.9303 188.594 55.9303C182.659 55.9303 177.164 53.2927 174.219 48.9407L162.833 60.1065C166.394 67.9314 176.989 73.0748 188.638 73.0748Z" fill="white"/>
<path d="M252.82 74.0859C269.041 74.0859 282.229 62.6123 282.229 46.347V1.24401H263.282V46.3031C263.282 52.1058 258.095 56.1062 252.776 56.1062C247.413 56.1062 242.357 52.1937 242.357 46.3031V1.24401H223.41V46.347C223.41 62.6123 236.598 74.0859 252.82 74.0859Z" fill="white"/>
<path d="M336.3 1.15609V35.7087L299.989 0.540645H293.922V72.1516H312.737V37.5111L349.18 72.811H355.159V1.15609H336.3Z" fill="white"/>
<path d="M184.89 128.676V158.086H170.29V88.3422H356.208V100.526H184.89V116.387H215.56V128.676H184.89Z" fill="white"/>
<path d="M228.497 158.086V113.791H239.481V119.102C240.441 117.602 241.432 116.432 242.452 115.591C243.532 114.751 244.613 114.121 245.693 113.701C246.833 113.221 247.974 112.92 249.114 112.8C250.255 112.68 251.425 112.62 252.625 112.62H254.156V124.594C253.076 124.414 251.995 124.324 250.915 124.324C243.772 124.324 240.201 127.895 240.201 135.038V158.086H228.497Z" fill="white"/>
<path d="M288.369 131.617C288.309 129.996 288.009 128.586 287.468 127.385C286.988 126.125 286.328 125.105 285.488 124.324C284.648 123.484 283.687 122.884 282.607 122.524C281.526 122.104 280.416 121.893 279.276 121.893C276.935 121.893 274.894 122.764 273.154 124.504C271.473 126.185 270.513 128.556 270.273 131.617H288.369ZM269.913 138.999C270.093 142.36 271.053 145.031 272.794 147.012C274.594 148.993 276.935 149.983 279.816 149.983C281.737 149.983 283.417 149.563 284.858 148.722C286.358 147.822 287.318 146.592 287.739 145.031H299.803C298.422 149.593 296.021 153.104 292.6 155.565C289.179 158.026 285.098 159.256 280.356 159.256C265.591 159.256 258.209 151.213 258.209 135.128C258.209 131.707 258.689 128.616 259.649 125.855C260.609 123.094 261.99 120.723 263.791 118.742C265.651 116.762 267.902 115.261 270.543 114.241C273.184 113.161 276.215 112.62 279.636 112.62C286.478 112.62 291.64 114.811 295.121 119.193C298.662 123.574 300.433 130.176 300.433 138.999H269.913Z" fill="white"/>
<path d="M338.149 131.617C338.089 129.996 337.789 128.586 337.249 127.385C336.769 126.125 336.109 125.105 335.268 124.324C334.428 123.484 333.468 122.884 332.387 122.524C331.307 122.104 330.197 121.893 329.056 121.893C326.715 121.893 324.675 122.764 322.934 124.504C321.254 126.185 320.293 128.556 320.053 131.617H338.149ZM319.693 138.999C319.873 142.36 320.833 145.031 322.574 147.012C324.375 148.993 326.715 149.983 329.596 149.983C331.517 149.983 333.198 149.563 334.638 148.722C336.139 147.822 337.099 146.592 337.519 145.031H349.583C348.203 149.593 345.802 153.104 342.381 155.565C338.959 158.026 334.878 159.256 330.137 159.256C315.372 159.256 307.989 151.213 307.989 135.128C307.989 131.707 308.469 128.616 309.43 125.855C310.39 123.094 311.77 120.723 313.571 118.742C315.432 116.762 317.682 115.261 320.323 114.241C322.964 113.161 325.995 112.62 329.416 112.62C336.259 112.62 341.42 114.811 344.901 119.193C348.443 123.574 350.213 130.176 350.213 138.999H319.693Z" fill="white"/>
<path d="M405.7 8.67834H371.919L385.497 49.5492H420.934L405.7 8.67834Z" fill="white"/>
<path d="M445.857 8.67834H412.076L425.655 49.5492H461.092L445.857 8.67834Z" fill="white"/>
<path d="M405.7 63.1729H371.919L385.497 104.044H420.934L405.7 63.1729Z" fill="white"/>
<path d="M445.857 63.1729H412.076L425.655 104.044H461.092L445.857 63.1729Z" fill="white"/>
<path d="M405.7 117.667H371.919L385.497 158.538H420.934L405.7 117.667Z" fill="white"/>
<path d="M445.857 117.667H412.076L425.655 158.538H461.092L445.857 117.667Z" fill="white"/>
</svg>
