<svg width="1480" height="363" viewBox="0 0 1480 363" fill="none" xmlns="http://www.w3.org/2000/svg">
<path fill-rule="evenodd" clip-rule="evenodd" d="M320.374 178.886C321.046 172.915 321.392 166.846 321.392 160.696C321.392 148.358 320.001 136.345 317.369 124.805C330.943 131.934 340.924 142.332 345.728 154.456L320.374 178.886ZM310.625 218.647C305.356 215.735 299.705 213.032 293.723 210.516C288.316 208.247 283.309 206.305 278.779 204.549L278.779 204.549C262.193 198.116 252.004 194.165 252.004 185.745C252.004 177.778 261.13 171.259 273.878 171.259C285.032 171.259 302.994 176.619 309.948 188.932L320.374 178.886C318.812 192.75 315.485 206.081 310.625 218.647ZM185.356 319.511C177.317 320.749 169.081 321.392 160.696 321.392C71.946 321.392 0 249.446 0 160.696C0 71.946 71.946 0 160.696 0C237.108 0 301.063 53.3328 317.369 124.805C305.155 118.389 290.031 114.62 273.154 114.62C228.827 114.62 190.44 143.447 190.44 183.862C190.44 219.062 215.79 238.473 245.341 251.221L245.424 251.258C257.978 256.82 270.828 262.513 279.864 268.504C270.453 278.9 259.701 288.059 247.88 295.708C235.729 292.13 225.273 284.999 218.687 275.267L181.169 312.061C182.34 314.635 183.742 317.121 185.356 319.511ZM185.356 319.511C199.907 341.061 231.645 354.794 266.2 354.794C312.99 354.794 354.419 327.127 354.419 282.655C354.419 253.828 337.506 233.509 310.625 218.647C303.46 237.172 292.961 254.036 279.864 268.504C287.283 273.424 292.13 278.544 292.13 283.959C292.13 293.519 279.238 298.3 266.056 298.3C259.771 298.3 253.635 297.402 247.88 295.708C229.32 307.717 208.127 316.004 185.356 319.511ZM477.693 358.126C531.146 358.126 574.603 320.318 574.603 266.721V118.096H512.169V266.576C512.169 285.697 495.076 298.879 477.548 298.879C459.876 298.879 443.217 285.987 443.217 266.576V118.096H380.783V266.721C380.783 320.318 424.241 358.126 477.693 358.126ZM752.779 231.665V117.807H814.923V353.925H795.222L675.135 237.604V351.752H613.135V115.779H633.126L752.779 231.665Z" fill="#F77F00"/>
<path d="M900.224 256.298V359.144H849.168V115.253H1471.83V157.861H900.224V213.324H1007.48V256.298H900.224Z" fill="#F77F00"/>
<path d="M1052.24 359.144V213.183H1088.44V230.686C1091.6 225.742 1094.87 221.885 1098.23 219.116C1101.79 216.347 1105.35 214.27 1108.91 212.886C1112.67 211.304 1116.42 210.315 1120.18 209.919C1123.94 209.524 1127.8 209.326 1131.75 209.326H1136.8V248.783C1133.24 248.189 1129.68 247.893 1126.12 247.893C1102.58 247.893 1090.81 259.661 1090.81 283.196V359.144H1052.24Z" fill="#F77F00"/>
<path d="M1249.53 271.923C1249.34 266.583 1248.35 261.935 1246.57 257.98C1244.99 253.826 1242.81 250.464 1240.04 247.893C1237.27 245.124 1234.11 243.146 1230.55 241.959C1226.99 240.575 1223.33 239.883 1219.57 239.883C1211.86 239.883 1205.13 242.751 1199.4 248.486C1193.86 254.024 1190.7 261.836 1189.9 271.923H1249.53ZM1188.72 296.25C1189.31 307.326 1192.48 316.127 1198.21 322.653C1204.14 329.18 1211.86 332.444 1221.35 332.444C1227.68 332.444 1233.22 331.059 1237.96 328.29C1242.91 325.324 1246.07 321.269 1247.46 316.127H1287.21C1282.66 331.158 1274.75 342.728 1263.48 350.837C1252.2 358.946 1238.76 363.001 1223.13 363.001C1174.48 363.001 1150.15 336.498 1150.15 283.493C1150.15 272.22 1151.73 262.034 1154.9 252.936C1158.06 243.838 1162.61 236.026 1168.54 229.499C1174.68 222.973 1182.09 218.028 1190.79 214.666C1199.5 211.106 1209.48 209.326 1220.76 209.326C1243.3 209.326 1260.31 216.545 1271.78 230.983C1283.45 245.421 1289.29 267.176 1289.29 296.25H1188.72Z" fill="#F77F00"/>
<path d="M1413.57 271.923C1413.37 266.583 1412.39 261.935 1410.61 257.98C1409.02 253.826 1406.85 250.464 1404.08 247.893C1401.31 245.124 1398.15 243.146 1394.59 241.959C1391.03 240.575 1387.37 239.883 1383.61 239.883C1375.89 239.883 1369.17 242.751 1363.43 248.486C1357.9 254.024 1354.73 261.836 1353.94 271.923H1413.57ZM1352.75 296.25C1353.35 307.326 1356.51 316.127 1362.25 322.653C1368.18 329.18 1375.89 332.444 1385.39 332.444C1391.72 332.444 1397.26 331.059 1402 328.29C1406.95 325.324 1410.11 321.269 1411.5 316.127H1451.25C1446.7 331.158 1438.79 342.728 1427.52 350.837C1416.24 358.946 1402.79 363.001 1387.17 363.001C1338.51 363.001 1314.19 336.498 1314.19 283.493C1314.19 272.22 1315.77 262.034 1318.93 252.936C1322.1 243.838 1326.65 236.026 1332.58 229.499C1338.71 222.973 1346.13 218.028 1354.83 214.666C1363.53 211.106 1373.52 209.326 1384.79 209.326C1407.34 209.326 1424.35 216.545 1435.82 230.983C1447.49 245.421 1453.33 267.176 1453.33 296.25H1352.75Z" fill="#F77F00"/>
<path d="M1478.4 0H1128.44L1196.8 67.3392H1479.59L1478.4 0Z" fill="#F77F00"/>
<path d="M490.433 0H320.368L388.727 67.3392H567.13L490.433 0Z" fill="#F77F00"/>
<path d="M692.445 0H522.38L590.74 67.3392H769.142L692.445 0Z" fill="#F77F00"/>
<path d="M894.469 0H724.403L792.763 67.3392H971.165L894.469 0Z" fill="#F77F00"/>
<path d="M1096.48 0H926.418L994.778 67.3392H1173.18L1096.48 0Z" fill="#F77F00"/>
</svg>
