<svg width="412" height="117" viewBox="0 0 412 117" fill="none" xmlns="http://www.w3.org/2000/svg">
<circle cx="44.7353" cy="44.7353" r="44.7353" fill="#F77F00"/>
<path d="M74.1063 98.7695C87.1317 98.7695 98.665 91.0672 98.665 78.687C98.665 69.0894 91.9305 62.8791 81.7683 58.6045C74.7515 55.6607 70.1543 54.6929 70.1543 51.7087C70.1543 49.4908 72.6949 47.6761 76.2436 47.6761C79.3487 47.6761 84.3492 49.1682 86.2849 52.5959L96.2454 42.9983C93.7049 36.5864 85.9622 31.9085 76.042 31.9085C63.7021 31.9085 53.0157 39.9335 53.0157 51.1845C53.0157 60.9838 60.0728 66.3875 68.2993 69.9362C74.6709 72.7591 81.3247 75.7029 81.3247 79.05C81.3247 81.7115 77.7357 83.0423 74.066 83.0423C68.6219 83.0423 63.5812 80.6227 60.8793 76.6304L50.4348 86.8732C53.7012 94.0513 63.4198 98.7695 74.1063 98.7695ZM132.983 99.697C147.863 99.697 159.961 89.1718 159.961 74.2511V32.8764H142.58V74.2108C142.58 79.5339 137.822 83.2036 132.942 83.2036C128.023 83.2036 123.385 79.6145 123.385 74.2108V32.8764H106.004V74.2511C106.004 89.1718 118.102 99.697 132.983 99.697ZM209.562 32.7957V64.4922L176.253 32.2311H170.688V97.9227H187.947V66.1455L221.378 98.5275H226.862V32.7957H209.562Z" fill="#FFB703"/>
<path d="M250.609 71.3493V99.9799H236.396V32.0845H409.736V43.9457H250.609V59.3858H280.466V71.3493H250.609Z" fill="#FFB703"/>
<path d="M292.929 99.9799V59.3465H303.005V64.2192C303.886 62.8427 304.794 61.769 305.73 60.9982C306.721 60.2274 307.712 59.6493 308.703 59.2639C309.749 58.8234 310.796 58.5481 311.842 58.438C312.888 58.3279 313.961 58.2728 315.063 58.2728H316.467V69.257C315.476 69.0919 314.484 69.0093 313.493 69.0093C306.941 69.0093 303.665 72.2853 303.665 78.8373V99.9799H292.929Z" fill="#FFB703"/>
<path d="M347.851 75.6989C347.796 74.2123 347.521 72.9185 347.026 71.8173C346.585 70.661 345.979 69.725 345.209 69.0093C344.438 68.2385 343.557 67.6879 342.566 67.3575C341.575 66.9721 340.556 66.7794 339.51 66.7794C337.363 66.7794 335.491 67.5778 333.894 69.1745C332.352 70.7161 331.471 72.8909 331.251 75.6989H347.851ZM330.921 82.4712C331.086 85.5545 331.967 88.0046 333.564 89.8215C335.215 91.6385 337.363 92.5469 340.006 92.5469C341.767 92.5469 343.309 92.1615 344.63 91.3907C346.007 90.5648 346.888 89.4361 347.273 88.0046H358.34C357.074 92.189 354.871 95.41 351.733 97.6674C348.595 99.9248 344.851 101.054 340.501 101.054C326.957 101.054 320.184 93.6756 320.184 78.9199C320.184 75.7815 320.625 72.946 321.506 70.4133C322.387 67.8806 323.653 65.7058 325.305 63.8888C327.012 62.0719 329.076 60.6954 331.499 59.7594C333.922 58.7683 336.702 58.2728 339.84 58.2728C346.117 58.2728 350.852 60.2825 354.046 64.3018C357.294 68.321 358.918 74.3775 358.918 82.4712H330.921Z" fill="#FFB703"/>
<path d="M393.517 75.6989C393.462 74.2123 393.187 72.9185 392.691 71.8173C392.251 70.661 391.645 69.725 390.874 69.0093C390.103 68.2385 389.222 67.6879 388.231 67.3575C387.24 66.9721 386.222 66.7794 385.175 66.7794C383.028 66.7794 381.156 67.5778 379.559 69.1745C378.018 70.7161 377.137 72.8909 376.917 75.6989H393.517ZM376.586 82.4712C376.751 85.5545 377.632 88.0046 379.229 89.8215C380.881 91.6385 383.028 92.5469 385.671 92.5469C387.433 92.5469 388.975 92.1615 390.296 91.3907C391.672 90.5648 392.553 89.4361 392.939 88.0046H404.006C402.739 92.189 400.537 95.41 397.399 97.6674C394.26 99.9248 390.516 101.054 386.167 101.054C372.622 101.054 365.85 93.6756 365.85 78.9199C365.85 75.7815 366.29 72.946 367.171 70.4133C368.052 67.8806 369.319 65.7058 370.97 63.8888C372.677 62.0719 374.742 60.6954 377.164 59.7594C379.587 58.7683 382.367 58.2728 385.506 58.2728C391.783 58.2728 396.518 60.2825 399.711 64.3018C402.959 68.321 404.584 74.3775 404.584 82.4712H376.586Z" fill="#FFB703"/>
<path d="M411.565 0H314.141L333.171 18.7462H411.897L411.565 0Z" fill="#FFB703"/>
<path d="M136.53 0H89.1865L108.217 18.7462H157.881L136.53 0Z" fill="#FFB703"/>
<path d="M192.769 0H145.425L164.456 18.7462H214.12L192.769 0Z" fill="#FFB703"/>
<path d="M249.007 0H201.664L220.694 18.7462H270.359L249.007 0Z" fill="#FFB703"/>
<path d="M305.246 0H257.903L276.933 18.7462H326.597L305.246 0Z" fill="#FFB703"/>
</svg>
