<svg width="412" height="102" viewBox="0 0 412 102" fill="none" xmlns="http://www.w3.org/2000/svg">
<path fill-rule="evenodd" clip-rule="evenodd" d="M89.1871 49.7992C89.3744 48.1371 89.4706 46.4474 89.4706 44.7353C89.4706 41.3007 89.0835 37.9565 88.3506 34.7439C92.1294 36.7287 94.908 39.6233 96.2452 42.9983L89.1871 49.7992ZM86.4732 60.8683C85.0066 60.0575 83.4333 59.305 81.7681 58.6046C80.2628 57.973 78.8688 57.4324 77.6077 56.9434C72.9904 55.1527 70.1541 54.0527 70.1541 51.7088C70.1541 49.4908 72.6947 47.6761 76.2434 47.6761C79.3485 47.6761 84.349 49.1682 86.2846 52.596L89.1871 49.7992C88.7523 53.6589 87.8263 57.3699 86.4732 60.8683ZM51.6002 88.9471C49.3623 89.2918 47.0697 89.4706 44.7353 89.4706C20.0287 89.4706 0 69.4419 0 44.7353C0 20.0287 20.0287 0 44.7353 0C66.0073 0 83.8116 14.8471 88.3506 34.7439C84.9504 32.958 80.7403 31.9086 76.0418 31.9086C63.7019 31.9086 53.0155 39.9335 53.0155 51.1845C53.0155 60.9838 60.0726 66.3875 68.2991 69.9362L68.3224 69.9466C71.8172 71.4949 75.3944 73.0797 77.9097 74.7476C75.2898 77.6416 72.2966 80.1913 69.006 82.3206C65.6232 81.3246 62.7126 79.3396 60.8791 76.6304L50.4346 86.8733C50.7606 87.5898 51.151 88.2819 51.6002 88.9471ZM51.6002 88.9471C55.6509 94.9463 64.4864 98.7695 74.1061 98.7695C87.1315 98.7695 98.6648 91.0672 98.6648 78.6871C98.6648 70.6621 93.9566 65.0054 86.4732 60.8683C84.4785 66.0251 81.5557 70.7199 77.9097 74.7476C79.9751 76.1171 81.3245 77.5427 81.3245 79.05C81.3245 81.7115 77.7355 83.0423 74.0658 83.0423C72.3161 83.0423 70.6081 82.7924 69.006 82.3206C63.8392 85.664 57.9392 87.9709 51.6002 88.9471ZM132.982 99.6971C147.863 99.6971 159.961 89.1719 159.961 74.2512V32.8764H142.58V74.2108C142.58 79.5339 137.822 83.2036 132.942 83.2036C128.022 83.2036 123.385 79.6146 123.385 74.2108V32.8764H106.004V74.2512C106.004 89.1719 118.102 99.6971 132.982 99.6971ZM209.562 64.4922V32.7957H226.862V98.5276H221.378L187.947 66.1456V97.9227H170.688V32.2312H176.253L209.562 64.4922Z" fill="white"/>
<path d="M250.609 71.3493V99.9799H236.396V32.0845H409.736V43.9457H250.609V59.3858H280.466V71.3493H250.609Z" fill="white"/>
<path d="M292.929 99.9799V59.3465H303.005V64.2192C303.886 62.8427 304.794 61.769 305.73 60.9982C306.721 60.2274 307.712 59.6493 308.703 59.2639C309.749 58.8234 310.796 58.5481 311.842 58.438C312.888 58.3279 313.961 58.2728 315.063 58.2728H316.467V69.257C315.476 69.0919 314.484 69.0093 313.493 69.0093C306.941 69.0093 303.665 72.2853 303.665 78.8373V99.9799H292.929Z" fill="white"/>
<path d="M347.851 75.6989C347.796 74.2123 347.521 72.9185 347.026 71.8173C346.585 70.661 345.979 69.725 345.209 69.0093C344.438 68.2385 343.557 67.6879 342.566 67.3575C341.575 66.9721 340.556 66.7794 339.51 66.7794C337.363 66.7794 335.491 67.5778 333.894 69.1745C332.352 70.7161 331.471 72.8909 331.251 75.6989H347.851ZM330.921 82.4712C331.086 85.5545 331.967 88.0046 333.564 89.8215C335.215 91.6385 337.363 92.5469 340.006 92.5469C341.767 92.5469 343.309 92.1615 344.63 91.3907C346.007 90.5648 346.888 89.4361 347.273 88.0046H358.34C357.074 92.189 354.871 95.41 351.733 97.6674C348.595 99.9248 344.851 101.054 340.501 101.054C326.957 101.054 320.184 93.6756 320.184 78.9199C320.184 75.7815 320.625 72.946 321.506 70.4133C322.387 67.8806 323.653 65.7058 325.305 63.8888C327.012 62.0719 329.076 60.6954 331.499 59.7594C333.922 58.7683 336.702 58.2728 339.84 58.2728C346.117 58.2728 350.852 60.2825 354.046 64.3018C357.294 68.321 358.918 74.3775 358.918 82.4712H330.921Z" fill="white"/>
<path d="M393.517 75.6989C393.462 74.2123 393.187 72.9185 392.691 71.8173C392.251 70.661 391.645 69.725 390.874 69.0093C390.103 68.2385 389.222 67.6879 388.231 67.3575C387.24 66.9721 386.222 66.7794 385.175 66.7794C383.028 66.7794 381.156 67.5778 379.559 69.1745C378.018 70.7161 377.137 72.8909 376.917 75.6989H393.517ZM376.586 82.4712C376.751 85.5545 377.632 88.0046 379.229 89.8215C380.881 91.6385 383.028 92.5469 385.671 92.5469C387.433 92.5469 388.975 92.1615 390.296 91.3907C391.672 90.5648 392.553 89.4361 392.939 88.0046H404.006C402.739 92.189 400.537 95.41 397.399 97.6674C394.26 99.9248 390.516 101.054 386.167 101.054C372.622 101.054 365.85 93.6756 365.85 78.9199C365.85 75.7815 366.29 72.946 367.171 70.4133C368.052 67.8806 369.319 65.7058 370.97 63.8888C372.677 62.0719 374.742 60.6954 377.164 59.7594C379.587 58.7683 382.367 58.2728 385.506 58.2728C391.783 58.2728 396.518 60.2825 399.711 64.3018C402.959 68.321 404.584 74.3775 404.584 82.4712H376.586Z" fill="white"/>
<path d="M411.565 0H314.141L333.171 18.7462H411.897L411.565 0Z" fill="white"/>
<path d="M136.53 0H89.1865L108.217 18.7462H157.881L136.53 0Z" fill="white"/>
<path d="M192.769 0H145.425L164.456 18.7462H214.12L192.769 0Z" fill="white"/>
<path d="M249.007 0H201.664L220.694 18.7462H270.359L249.007 0Z" fill="white"/>
<path d="M305.246 0H257.903L276.933 18.7462H326.597L305.246 0Z" fill="white"/>
</svg>
